HIERARCHY
ROOT Hips
{
	OFFSET 0.000000 71.427986 0.000000
	CHANNELS 6 Xposition Yposition Zposition Xrotation Yrotation Zrotation
	JOINT Pelvis
	{
		OFFSET 0.000000 0.000000 0.000000
		CHANNELS 3 Xrotation Yrotation Zrotation
		JOINT LeftUpLeg
		{
			OFFSET 6.797100 -2.508499 -1.318700
			CHANNELS 3 Xrotation Yrotation Zrotation
			JOINT LeftLeg
			{
				OFFSET 0.069008 -29.241863 0.690200
				CHANNELS 3 Xrotation Yrotation Zrotation
				JOINT LeftFoot
				{
					OFFSET -0.069008 -29.568123 -0.266800
					CHANNELS 3 Xrotation Yrotation Zrotation
					JOINT LeftToeBase
					{
						OFFSET 3.145500 -8.631000 16.059900
						CHANNELS 3 Xrotation Yrotation Zrotation
						End Site
						{
							OFFSET 0.000000 18.501587 0.000000
						}
					}
				}
			}
			JOINT Left_ShortSleeve
			{
				OFFSET 0.265923 -10.480953 1.153800
				CHANNELS 3 Xrotation Yrotation Zrotation
				End Site
				{
					OFFSET 1.725763 19.823879 0.000000
				}
			}
		}
		JOINT RightUpLeg
		{
			OFFSET -6.797100 -2.508499 -1.318700
			CHANNELS 3 Xrotation Yrotation Zrotation
			JOINT RightLeg
			{
				OFFSET -0.082453 -29.241932 0.688000
				CHANNELS 3 Xrotation Yrotation Zrotation
				JOINT RightFoot
				{
					OFFSET 0.082453 -29.568058 -0.264600
					CHANNELS 3 Xrotation Yrotation Zrotation
					JOINT RightToeBase
					{
						OFFSET -3.115300 -8.682800 16.113400
						CHANNELS 3 Xrotation Yrotation Zrotation
						End Site
						{
							OFFSET 0.000000 18.567114 0.000000
						}
					}
				}
			}
			JOINT Right_ShortSleeve
			{
				OFFSET -0.265923 -10.480953 1.153800
				CHANNELS 3 Xrotation Yrotation Zrotation
				End Site
				{
					OFFSET -1.725766 19.823910 0.000000
				}
			}
		}
	}
	JOINT Spine
	{
		OFFSET 0.000000 13.368103 0.470500
		CHANNELS 3 Xrotation Yrotation Zrotation
		JOINT Spine1
		{
			OFFSET 0.147000 13.837402 0.538800
			CHANNELS 3 Xrotation Yrotation Zrotation
			JOINT Spine2
			{
				OFFSET 0.168000 16.242897 -1.435500
				CHANNELS 3 Xrotation Yrotation Zrotation
				JOINT Neck
				{
					OFFSET 0.217200 18.631500 -1.679100
					CHANNELS 3 Xrotation Yrotation Zrotation
					JOINT Head
					{
						OFFSET 0.000000 6.599396 1.385900
						CHANNELS 3 Xrotation Yrotation Zrotation
						JOINT Hat
						{
							OFFSET -0.532200 27.220596 -10.096100
							CHANNELS 3 Xrotation Yrotation Zrotation
							End Site
							{
								OFFSET 0.000000 22.029861 0.000000
							}
						}
						JOINT HairD
						{
							OFFSET -10.777400 17.437393 -1.325900
							CHANNELS 3 Xrotation Yrotation Zrotation
							JOINT HairD1
							{
								OFFSET -3.290299 -11.051193 1.062200
								CHANNELS 3 Xrotation Yrotation Zrotation
								End Site
								{
									OFFSET 0.000000 11.579437 0.000000
								}
							}
						}
						JOINT HairB
						{
							OFFSET -10.777400 17.437393 1.467900
							CHANNELS 3 Xrotation Yrotation Zrotation
							JOINT HairB1
							{
								OFFSET -1.561200 -12.956299 3.590200
								CHANNELS 3 Xrotation Yrotation Zrotation
								End Site
								{
									OFFSET 0.000000 13.534866 0.000000
								}
							}
						}
						JOINT HairA
						{
							OFFSET 9.713100 17.437393 1.467900
							CHANNELS 3 Xrotation Yrotation Zrotation
							JOINT HairA1
							{
								OFFSET 1.561200 -12.956299 3.590200
								CHANNELS 3 Xrotation Yrotation Zrotation
								End Site
								{
									OFFSET 0.000000 13.534866 0.000000
								}
							}
						}
						JOINT HairC
						{
							OFFSET 9.713100 17.437393 -1.325900
							CHANNELS 3 Xrotation Yrotation Zrotation
							JOINT HairC1
							{
								OFFSET 3.290300 -11.051193 1.062200
								CHANNELS 3 Xrotation Yrotation Zrotation
								End Site
								{
									OFFSET 0.000000 11.579437 0.000000
								}
							}
						}
					}
				}
				JOINT LeftShoulder
				{
					OFFSET 5.101800 15.108002 -2.763700
					CHANNELS 3 Xrotation Yrotation Zrotation
					JOINT LeftArm
					{
						OFFSET 9.825497 2.506317 -1.597400
						CHANNELS 3 Xrotation Yrotation Zrotation
						JOINT LeftForeArm
						{
							OFFSET 21.966244 0.000000 0.000000
							CHANNELS 3 Xrotation Yrotation Zrotation
							JOINT LeftHand
							{
								OFFSET 33.879036 0.000000 0.000000
								CHANNELS 3 Xrotation Yrotation Zrotation
								JOINT LeftHandThumb1
								{
									OFFSET 6.715286 -2.359680 3.363841
									CHANNELS 3 Xrotation Yrotation Zrotation
									JOINT LeftHandThumb2
									{
										OFFSET 2.507072 -1.447464 1.447461
										CHANNELS 3 Xrotation Yrotation Zrotation
										JOINT LeftHandThumb3
										{
											OFFSET 2.898338 -1.673355 1.673357
											CHANNELS 3 Xrotation Yrotation Zrotation
											End Site
											{
												OFFSET -0.295959 3.727692 -0.131651
											}
										}
									}
								}
								JOINT LeftHandIndex1
								{
									OFFSET 14.190811 -0.254547 3.840278
									CHANNELS 3 Xrotation Yrotation Zrotation
									JOINT LeftHandIndex2
									{
										OFFSET 3.551727 0.000000 -0.000000
										CHANNELS 3 Xrotation Yrotation Zrotation
										JOINT LeftHandIndex3
										{
											OFFSET 2.894196 0.000000 0.000000
											CHANNELS 3 Xrotation Yrotation Zrotation
											End Site
											{
												OFFSET -1.000603 2.690872 0.366626
											}
										}
									}
								}
								JOINT LeftHandMiddle1
								{
									OFFSET 13.776489 0.000000 0.000000
									CHANNELS 3 Xrotation Yrotation Zrotation
									JOINT LeftHandMiddle2
									{
										OFFSET 3.438232 0.000000 0.000000
										CHANNELS 3 Xrotation Yrotation Zrotation
										JOINT LeftHandMiddle3
										{
											OFFSET 3.691551 0.000000 0.000000
											CHANNELS 3 Xrotation Yrotation Zrotation
											End Site
											{
												OFFSET -1.082298 3.499527 0.457670
											}
										}
									}
								}
								JOINT LeftHandRing1
								{
									OFFSET 13.966164 -0.268127 -3.067488
									CHANNELS 3 Xrotation Yrotation Zrotation
									JOINT LeftHandRing2
									{
										OFFSET 3.162567 0.000000 0.000000
										CHANNELS 3 Xrotation Yrotation Zrotation
										JOINT LeftHandRing3
										{
											OFFSET 3.324348 0.000000 0.000000
											CHANNELS 3 Xrotation Yrotation Zrotation
											End Site
											{
												OFFSET -0.861900 3.184998 0.405154
											}
										}
									}
								}
								JOINT LeftHandPinky1
								{
									OFFSET 13.131393 -0.168503 -5.746925
									CHANNELS 3 Xrotation Yrotation Zrotation
									JOINT LeftHandPinky2
									{
										OFFSET 2.849182 0.000000 0.000000
										CHANNELS 3 Xrotation Yrotation Zrotation
										JOINT LeftHandPinky3
										{
											OFFSET 2.805038 0.000000 0.000000
											CHANNELS 3 Xrotation Yrotation Zrotation
											End Site
											{
												OFFSET -0.882500 2.642609 0.325652
											}
										}
									}
								}
							}
							JOINT Left_Sleeve
							{
								OFFSET 6.592125 -0.646545 0.805568
								CHANNELS 3 Xrotation Yrotation Zrotation
								End Site
								{
									OFFSET -0.000179 20.275787 -0.000000
								}
							}
						}
					}
				}
				JOINT RightShoulder
				{
					OFFSET -5.731700 15.108002 -2.763700
					CHANNELS 3 Xrotation Yrotation Zrotation
					JOINT RightArm
					{
						OFFSET -9.825497 2.506317 -1.597400
						CHANNELS 3 Xrotation Yrotation Zrotation
						JOINT RightForeArm
						{
							OFFSET -21.966242 0.000000 0.000000
							CHANNELS 3 Xrotation Yrotation Zrotation
							JOINT RightHand
							{
								OFFSET -33.879032 0.000000 0.000000
								CHANNELS 3 Xrotation Yrotation Zrotation
								JOINT RightHandThumb1
								{
									OFFSET -6.715286 -2.359680 3.363841
									CHANNELS 3 Xrotation Yrotation Zrotation
									JOINT RightHandThumb2
									{
										OFFSET -2.507072 -1.447464 1.447461
										CHANNELS 3 Xrotation Yrotation Zrotation
										JOINT RightHandThumb3
										{
											OFFSET -2.898338 -1.673355 1.673357
											CHANNELS 3 Xrotation Yrotation Zrotation
											End Site
											{
												OFFSET 0.295959 3.727692 -0.131651
											}
										}
									}
								}
								JOINT RightHandIndex1
								{
									OFFSET -14.190811 -0.254547 3.840278
									CHANNELS 3 Xrotation Yrotation Zrotation
									JOINT RightHandIndex2
									{
										OFFSET -3.551727 0.000000 -0.000000
										CHANNELS 3 Xrotation Yrotation Zrotation
										JOINT RightHandIndex3
										{
											OFFSET -2.894196 0.000000 0.000000
											CHANNELS 3 Xrotation Yrotation Zrotation
											End Site
											{
												OFFSET 1.000603 2.690872 0.366626
											}
										}
									}
								}
								JOINT RightHandMiddle1
								{
									OFFSET -13.776489 0.000000 0.000000
									CHANNELS 3 Xrotation Yrotation Zrotation
									JOINT RightHandMiddle2
									{
										OFFSET -3.438232 0.000000 0.000000
										CHANNELS 3 Xrotation Yrotation Zrotation
										JOINT RightHandMiddle3
										{
											OFFSET -3.691551 0.000000 0.000000
											CHANNELS 3 Xrotation Yrotation Zrotation
											End Site
											{
												OFFSET 1.082298 3.499527 0.457670
											}
										}
									}
								}
								JOINT RightHandRing1
								{
									OFFSET -13.966164 -0.268127 -3.067488
									CHANNELS 3 Xrotation Yrotation Zrotation
									JOINT RightHandRing2
									{
										OFFSET -3.162567 0.000000 0.000000
										CHANNELS 3 Xrotation Yrotation Zrotation
										JOINT RightHandRing3
										{
											OFFSET -3.324348 0.000000 0.000000
											CHANNELS 3 Xrotation Yrotation Zrotation
											End Site
											{
												OFFSET 0.861900 3.184998 0.405154
											}
										}
									}
								}
								JOINT RightHandPinky1
								{
									OFFSET -13.131393 -0.168503 -5.746925
									CHANNELS 3 Xrotation Yrotation Zrotation
									JOINT RightHandPinky2
									{
										OFFSET -2.849182 0.000000 0.000000
										CHANNELS 3 Xrotation Yrotation Zrotation
										JOINT RightHandPinky3
										{
											OFFSET -2.805038 0.000000 0.000000
											CHANNELS 3 Xrotation Yrotation Zrotation
											End Site
											{
												OFFSET 0.882500 2.642609 0.325652
											}
										}
									}
								}
							}
							JOINT Right_Sleeve
							{
								OFFSET -6.592125 -0.646545 0.805568
								CHANNELS 3 Xrotation Yrotation Zrotation
								End Site
								{
									OFFSET 0.000179 20.275787 -0.000000
								}
							}
						}
					}
				}
				JOINT Bind_Right_JacketString
				{
					OFFSET -3.534800 11.969597 7.200700
					CHANNELS 3 Xrotation Yrotation Zrotation
					JOINT Bind_Right_JacketString1
					{
						OFFSET -0.319900 -6.102600 2.794100
						CHANNELS 3 Xrotation Yrotation Zrotation
						End Site
						{
							OFFSET 0.000000 6.719452 0.000000
						}
					}
				}
				JOINT Bind_Left_JacketString
				{
					OFFSET 2.904800 11.969597 7.200700
					CHANNELS 3 Xrotation Yrotation Zrotation
					JOINT Bind_Left_JacketString1
					{
						OFFSET 0.364800 -5.904503 3.186800
						CHANNELS 3 Xrotation Yrotation Zrotation
						End Site
						{
							OFFSET 0.000000 6.719513 0.000000
						}
					}
				}
				JOINT HairE
				{
					OFFSET 5.915200 17.612701 -11.592200
					CHANNELS 3 Xrotation Yrotation Zrotation
					JOINT HairE1
					{
						OFFSET 0.289200 -7.171898 -1.284500
						CHANNELS 3 Xrotation Yrotation Zrotation
						End Site
						{
							OFFSET 0.000000 7.291756 0.000000
						}
					}
				}
				JOINT HairF
				{
					OFFSET -0.864800 17.612701 -11.592200
					CHANNELS 3 Xrotation Yrotation Zrotation
					JOINT HairF1
					{
						OFFSET 0.000000 -14.087097 -2.127501
						CHANNELS 3 Xrotation Yrotation Zrotation
						End Site
						{
							OFFSET 0.000000 14.246841 0.000000
						}
					}
				}
				JOINT HairG
				{
					OFFSET -8.087700 17.612701 -11.592200
					CHANNELS 3 Xrotation Yrotation Zrotation
					JOINT HairG1
					{
						OFFSET -0.293600 -6.081398 -0.910100
						CHANNELS 3 Xrotation Yrotation Zrotation
						End Site
						{
							OFFSET 0.000000 6.156120 0.000000
						}
					}
				}
			}
		}
	}
	JOINT Pouch
	{
		OFFSET 0.000000 4.394501 10.847300
		CHANNELS 3 Xrotation Yrotation Zrotation
		End Site
		{
			OFFSET 0.000000 21.880577 0.000000
		}
	}
	JOINT Bag
	{
		OFFSET -13.229000 4.813004 -0.593300
		CHANNELS 3 Xrotation Yrotation Zrotation
		End Site
		{
			OFFSET 0.000000 21.880577 0.000000
		}
	}
	JOINT OccupyGuyFacialAnim_Joint
	{
		OFFSET 1.000000 -70.206398 -1.655000
		CHANNELS 3 Xrotation Yrotation Zrotation
		End Site
		{
			OFFSET 0.000000 21.880577 0.000000
		}
	}
}
MOTION
Frames: 4
Frame Time: 0.016667
0.005749 70.507446 1.377926 -0.316883 -0.860716 0.835342 0.000000 0.000000 -0.000000 -4.678195 13.914018 7.538026 11.357046 -10.130712 0.306961 -7.379411 0.408832 -6.424272 -0.000000 0.000000 0.000000 -0.000000 0.000001 0.000001 -3.035259 -10.637069 -11.937121 8.425073 6.490568 2.460468 -6.269654 -0.609862 7.372119 -0.000000 0.000000 0.000000 0.000000 -0.000001 -0.000000 0.602327 0.540131 0.165839 0.948881 0.543752 -0.036076 0.949056 0.535715 -0.036774 1.759488 -1.272664 -0.666066 -4.887638 -8.012346 2.592187 0.000000 0.000000 0.000000 0.000000 0.000000 0.000000 0.000000 0.000000 0.000000 0.000000 0.000000 -0.000000 0.000000 -0.000001 -0.000000 0.000000 0.000000 -0.000000 0.000000 -0.000001 -0.000000 0.000000 0.000000 0.000000 0.000000 0.000000 0.000000 0.691657 -2.499305 -11.191560 5.273947 -17.247124 -62.895271 -0.000004 -21.850207 -0.000009 -1.967780 -14.998025 7.080659 -0.666103 2.158566 4.837370 11.853348 25.414280 17.057480 0.000002 -0.000000 -0.000003 0.021816 -0.966719 -7.590983 0.267898 1.752962 -17.376539 -0.000003 0.000000 -0.000004 -0.077448 2.661816 -15.698693 0.268772 1.755781 -17.405231 -0.000003 0.000003 -0.000002 0.137970 3.644561 -21.134846 0.386563 2.094659 -20.910457 0.000002 0.000006 0.000000 0.949908 5.544498 -27.129289 0.268796 1.755838 -17.405890 -0.000000 -0.000003 -0.000001 0.000001 -0.000000 0.000000 0.450398 7.851255 13.847200 5.786523 9.805974 61.054918 -0.000005 23.253210 0.000009 -0.662976 7.830460 -2.975862 -1.664506 -0.169102 -4.216961 12.708041 -29.838180 -16.127707 -0.000001 0.000000 0.000001 0.037650 1.264470 6.828354 0.213839 -1.396490 17.412932 -0.000004 -0.000003 0.000003 -0.135878 -2.206385 14.998773 0.214464 -1.398409 17.437707 -0.000000 -0.000001 -0.000001 0.031312 -3.078187 20.463771 0.308451 -1.668281 20.948523 0.000001 0.000002 -0.000003 0.775424 -4.872497 26.474281 0.214428 -1.398289 17.436023 -0.000001 -0.000000 0.000002 -0.000001 -0.000001 -0.000000 -0.000000 0.000000 0.000000 0.000000 0.000000 0.000000 -0.000000 0.000000 0.000000 -0.000000 0.000000 0.000000 -0.000000 0.000000 0.000000 0.000000 0.000000 0.000000 -0.000000 0.000000 0.000000 -0.000000 0.000000 0.000000 -0.000000 0.000000 0.000000 0.000000 0.000000 0.000000 0.000000 0.000000 -0.000000 0.000000 0.000000 -0.000000 0.000000 0.000000 -0.000000 
0.004805 70.507492 1.401886 -0.316885 -0.880238 0.835109 -0.000000 0.000000 -0.000000 -4.643630 13.923364 7.537288 11.334497 -10.130863 0.306954 -7.389775 0.426573 -6.427449 -0.000000 0.000000 0.000000 -0.000000 -0.000001 -0.000000 -3.000798 -10.631472 -11.936095 8.387796 6.490042 2.454117 -6.267154 -0.609950 7.384917 0.000000 -0.000000 0.000000 0.000000 -0.000001 -0.000000 0.602326 0.540115 0.155155 0.948880 0.543752 -0.041389 0.949055 0.535716 -0.036774 1.770465 -1.244366 -0.642450 -4.885036 -7.837787 2.577701 -0.000000 -0.000001 0.000000 -0.000000 -0.000001 0.000000 -0.000000 -0.000001 0.000000 -0.000000 -0.000001 0.000000 -0.000000 -0.000000 0.000000 -0.000000 -0.000001 0.000000 -0.000000 -0.000000 0.000000 -0.000000 -0.000001 0.000000 -0.000000 -0.000001 0.000000 0.691599 -2.499366 -11.192654 5.373538 -17.224137 -62.870156 -0.000000 -21.977802 -0.000035 -2.049692 -15.016721 7.242967 -0.708386 2.148818 4.824291 11.885549 25.397632 16.959735 0.000000 0.000003 0.000000 0.004568 -0.960448 -7.844291 0.274106 1.772683 -17.578462 -0.000002 -0.000003 0.000001 -0.083332 2.660502 -15.925185 0.276577 1.780494 -17.658327 -0.000000 0.000003 -0.000001 0.130350 3.636577 -21.401527 0.396291 2.119868 -21.174526 -0.000002 0.000002 0.000002 0.949950 5.539176 -27.389789 0.277957 1.784793 -17.702486 -0.000001 -0.000001 -0.000001 0.000002 0.000001 -0.000001 0.452104 7.851162 13.834698 5.909145 9.840616 61.120214 -0.000000 23.315445 -0.000001 -0.695392 7.878868 -3.018677 -1.689562 -0.129790 -4.285269 12.722671 -29.827317 -15.983423 0.000002 -0.000003 0.000002 0.037484 1.312003 6.928891 0.220919 -1.418764 17.699891 -0.000002 0.000003 -0.000003 -0.145123 -2.185775 15.152145 0.220043 -1.416035 17.664802 0.000004 0.000001 0.000003 0.022666 -3.061564 20.607558 0.316086 -1.688120 21.209605 0.000006 -0.000002 -0.000001 0.769645 -4.857943 26.616697 0.219020 -1.412805 17.623131 -0.000003 0.000001 0.000002 0.000001 -0.000001 0.000001 0.000000 -0.000000 -0.000000 0.000000 0.000000 -0.000000 0.000000 -0.000000 0.000000 0.000000 -0.000000 0.000000 0.000000 -0.000000 -0.000000 0.000000 0.000000 -0.000000 0.000000 -0.000000 0.000000 0.000000 -0.000000 0.000000 0.000000 -0.000000 -0.000000 0.000000 0.000000 -0.000000 -0.000000 0.000000 -0.000000 -0.000000 0.000000 -0.000000 -0.000000 0.000000 -0.000000 
0.003152 70.506790 1.427717 -0.316886 -0.897521 0.835170 0.000000 -0.000000 -0.000000 -4.610297 13.932019 7.536814 11.323333 -10.131057 0.306961 -7.410773 0.440061 -6.428622 -0.000000 -0.000001 -0.000000 -0.000000 0.000000 -0.000000 -2.979237 -10.625082 -11.932582 8.386808 6.485745 2.448326 -6.286673 -0.609908 7.389851 -0.000000 0.000000 0.000000 0.000000 0.000000 -0.000000 0.602326 0.543848 0.144507 0.948881 0.543752 -0.047614 0.949055 0.535715 -0.042374 1.780576 -1.212659 -0.622516 -4.885159 -7.647344 2.553905 -0.000000 0.000000 0.000000 -0.000000 0.000000 0.000000 -0.000000 0.000000 0.000000 -0.000000 0.000000 -0.000000 -0.000000 -0.000001 -0.000000 -0.000000 0.000000 -0.000000 -0.000000 -0.000001 -0.000000 -0.000000 0.000000 0.000000 -0.000000 0.000000 0.000000 0.692010 -2.516156 -11.214499 5.525730 -17.246009 -62.798836 -0.000004 -22.198149 -0.000040 -2.131731 -14.873358 7.452636 -0.830601 2.120670 4.786332 11.978271 25.349212 16.677312 -0.000000 0.000001 -0.000003 -0.041673 -0.942358 -8.576640 0.292455 1.829549 -18.162153 0.000003 -0.000000 -0.000002 -0.100882 2.656968 -16.579873 0.299777 1.851696 -18.389880 0.000001 0.000002 -0.000001 0.107217 3.614044 -22.172274 0.424994 2.192519 -21.937828 0.000001 0.000000 -0.000003 0.949220 5.524165 -28.142784 0.305272 1.868206 -18.559789 -0.000000 0.000001 0.000003 0.000002 -0.000000 0.000001 0.449468 7.849636 13.857034 6.043050 9.889816 61.153791 0.000005 23.361528 -0.000034 -0.730122 7.851455 -3.040908 -1.761837 -0.016401 -4.482740 12.765011 -29.795915 -15.566338 -0.000001 0.000001 0.000001 0.036052 1.449431 7.219413 0.241924 -1.482936 18.529390 0.000001 0.000001 -0.000001 -0.172600 -2.126499 15.595327 0.236555 -1.466876 18.321211 0.000002 0.000001 0.000001 -0.002931 -3.013783 21.023054 0.338694 -1.745222 21.964237 0.000002 -0.000000 -0.000004 0.752415 -4.816140 27.028261 0.232541 -1.454702 18.163935 0.000003 0.000002 0.000001 0.000001 0.000002 -0.000000 0.000000 -0.000000 -0.000000 0.000000 0.000000 -0.000000 0.000000 -0.000000 -0.000000 0.000000 -0.000000 -0.000000 0.000000 -0.000000 -0.000000 0.000000 0.000000 -0.000000 0.000000 -0.000000 -0.000000 0.000000 -0.000000 -0.000000 0.000000 -0.000000 -0.000000 0.000000 0.000000 -0.000000 0.000000 -0.000000 -0.000000 0.000000 -0.000000 -0.000000 0.000000 -0.000000 -0.000000 
0.001348 70.504066 1.454090 -0.316887 -0.908976 0.831551 -0.000000 0.000000 -0.000000 -4.591817 13.936584 7.543435 11.341143 -10.130996 0.306948 -7.447372 0.445401 -6.422326 0.000000 0.000000 0.000000 -0.000000 0.000001 0.000001 -2.970475 -10.606137 -11.922354 8.424142 6.467305 2.434346 -6.326691 -0.616358 7.396980 0.000000 0.000000 0.000000 -0.000000 -0.000002 -0.000001 0.603547 0.549147 0.136740 0.952789 0.543752 -0.056660 0.952979 0.540084 -0.051264 1.792711 -1.175588 -0.617547 -4.910366 -7.452485 2.543740 -0.000000 -0.000001 0.000000 -0.000000 -0.000001 0.000000 -0.000000 -0.000001 0.000000 -0.000000 -0.000001 0.000000 -0.000000 -0.000001 0.000000 -0.000000 -0.000001 0.000000 -0.000000 -0.000001 0.000000 -0.000000 -0.000001 0.000000 -0.000000 -0.000001 0.000000 0.691129 -2.553943 -11.273604 5.631555 -17.345952 -62.656918 -0.000009 -22.462021 -0.000032 -2.273011 -14.267545 7.402791 -1.025769 2.075843 4.725326 12.125257 25.271043 16.226632 -0.000002 -0.000001 -0.000006 -0.116549 -0.912132 -9.746211 0.322948 1.919983 -19.094417 0.000000 0.000001 -0.000003 -0.130694 2.652288 -17.625334 0.338690 1.964811 -19.558421 0.000000 -0.000000 -0.000001 0.066870 3.579862 -23.403073 0.472870 2.307739 -23.157078 -0.000001 -0.000001 0.000002 0.945483 5.501408 -29.345150 0.351507 2.000530 -19.929213 -0.000004 0.000001 0.000003 0.000000 -0.000001 -0.000000 0.446511 7.844591 13.940667 6.222916 9.968892 61.098836 -0.000009 23.471778 0.000030 -0.775168 7.617310 -2.904953 -1.876949 0.163947 -4.797938 12.832653 -29.745774 -14.900263 -0.000001 0.000001 -0.000000 0.030681 1.669073 7.683161 0.277387 -1.584794 19.854351 -0.000003 0.000002 -0.000001 -0.218972 -2.032694 16.303139 0.264134 -1.547644 19.369679 0.000001 -0.000001 0.000003 -0.045743 -2.938337 21.686619 0.376365 -1.835809 23.169585 0.000003 0.000001 -0.000003 0.723234 -4.750164 27.685463 0.254979 -1.521360 19.027691 0.000002 -0.000003 -0.000000 -0.000000 0.000002 -0.000001 -0.000000 -0.000000 -0.000000 -0.000000 -0.000000 -0.000000 -0.000000 -0.000000 -0.000000 -0.000000 -0.000000 -0.000000 -0.000000 -0.000000 -0.000000 -0.000000 -0.000000 -0.000000 -0.000000 -0.000000 -0.000000 -0.000000 -0.000000 -0.000000 -0.000000 -0.000000 -0.000000 -0.000000 -0.000000 -0.000000 -0.000000 0.000000 -0.000000 -0.000000 0.000000 -0.000000 -0.000000 0.000000 -0.000000 
